<?xml version="1.0" standalone="no"?>
<!DOCTYPE svg PUBLIC "-//W3C//DTD SVG 20010904//EN"
 "http://www.w3.org/TR/2001/REC-SVG-20010904/DTD/svg10.dtd">
<svg version="1.0" xmlns="http://www.w3.org/2000/svg"
 width="2966.000000pt" height="2966.000000pt" viewBox="0 0 2966.000000 2966.000000"
 preserveAspectRatio="xMidYMid meet">
<metadata>
Created by potrace 1.11, written by Peter Selinger 2001-2013
</metadata>
<g transform="translate(0.000000,2966.000000) scale(0.100000,-0.100000)"
fill="#000000" stroke="none">
<path d="M22214 29623 c-43 -67 -167 -310 -294 -578 -373 -787 -718 -1362
-1104 -1840 -74 -91 -221 -266 -285 -339 -48 -55 -277 -280 -411 -406 -74 -69
-166 -157 -204 -196 -251 -250 -556 -649 -827 -1079 -94 -149 -219 -354 -219
-360 0 -3 -15 -28 -33 -57 -19 -29 -37 -60 -41 -68 -4 -8 -12 -24 -19 -35 -12
-20 -77 -138 -137 -250 -98 -181 -278 -536 -345 -680 -21 -44 -53 -114 -72
-155 -20 -41 -55 -118 -78 -170 -24 -52 -69 -149 -100 -215 -234 -490 -314
-674 -359 -824 l-15 -50 42 14 c152 48 362 157 568 296 137 92 403 302 555
438 160 142 500 475 614 601 18 19 60 64 94 100 33 36 90 99 126 139 36 41 76
86 90 101 14 16 45 52 70 81 25 29 50 57 55 63 75 80 409 500 546 686 222 300
282 391 579 870 44 71 75 126 198 346 121 218 382 736 382 759 0 2 18 43 41
92 109 235 285 716 374 1023 37 127 109 417 120 480 3 19 8 42 10 50 2 8 7 29
10 45 2 17 7 39 9 50 2 11 7 40 11 65 4 25 9 52 10 60 2 13 6 37 20 135 1 11
5 40 9 65 6 45 9 69 21 210 14 164 22 546 12 557 -3 2 -13 -9 -23 -24z"/>
<path d="M23280 28418 c-46 -90 -99 -190 -116 -223 -18 -33 -45 -85 -60 -115
-45 -88 -235 -426 -304 -540 -223 -367 -339 -521 -810 -1069 -163 -190 -358
-420 -434 -511 -507 -605 -713 -997 -901 -1710 -8 -30 -28 -118 -45 -195 -52
-233 -56 -255 -66 -314 -3 -18 -8 -43 -10 -55 -3 -18 -15 -90 -41 -246 -12
-79 -40 -302 -48 -385 -3 -33 -8 -76 -10 -95 -3 -19 -7 -66 -10 -105 -3 -38
-7 -88 -10 -110 -2 -22 -7 -94 -11 -159 -3 -66 -7 -130 -9 -143 -1 -12 2 -20
6 -17 5 3 9 14 9 24 0 10 4 21 9 24 5 3 12 18 16 33 3 15 15 45 25 68 10 22
66 159 125 305 134 331 149 368 191 458 19 41 34 76 34 78 0 7 194 394 235
469 60 111 181 309 270 445 135 205 241 345 467 612 117 139 242 289 278 333
36 44 67 82 70 85 3 3 21 25 40 50 19 25 43 54 52 65 9 11 58 72 108 135 50
63 102 129 115 145 57 70 216 297 272 390 188 311 342 721 467 1246 37 157 57
242 62 267 2 12 6 34 10 50 20 101 64 349 69 389 3 26 8 58 10 69 3 12 7 48
10 80 3 33 8 70 10 83 7 38 18 251 13 251 -2 0 -42 -73 -88 -162z"/>
<path d="M24017 27713 c-71 -147 -297 -584 -307 -593 -3 -3 -21 -34 -39 -70
-102 -193 -401 -686 -574 -945 -131 -196 -367 -524 -481 -670 -73 -93 -160
-203 -174 -220 -10 -11 -41 -49 -71 -84 -29 -35 -58 -70 -64 -76 -11 -11 -207
-220 -277 -295 -564 -605 -754 -904 -965 -1515 -39 -113 -129 -414 -126 -422
0 -2 -6 -21 -14 -44 -9 -23 -17 -51 -19 -63 -2 -12 -13 -55 -24 -96 -21 -77
-102 -393 -107 -420 -2 -8 -20 -87 -40 -175 -38 -168 -92 -426 -101 -485 -3
-19 -7 -42 -9 -50 -3 -8 -7 -33 -10 -55 -3 -22 -9 -53 -12 -70 -3 -16 -7 -39
-9 -50 -1 -11 -5 -33 -7 -50 -19 -105 -34 -233 -42 -355 l-6 -85 24 35 c27 40
127 217 127 225 0 18 214 439 297 585 294 518 623 1038 790 1250 6 8 53 69
104 135 91 118 307 379 380 459 20 23 73 84 119 136 45 52 108 124 140 160
184 207 388 453 480 580 30 41 58 80 63 85 4 6 70 96 146 200 193 264 390 614
495 875 21 52 42 104 46 115 47 109 156 483 185 637 2 11 6 27 9 36 3 9 8 31
11 47 3 17 7 41 9 55 3 14 10 52 15 85 6 33 13 71 16 84 2 14 7 45 10 70 3 25
7 55 9 66 2 11 7 47 10 80 4 33 11 96 16 140 5 44 12 121 16 170 3 50 7 108 9
130 10 119 15 545 8 545 -5 0 -31 -44 -56 -97z"/>
<path d="M25136 27348 c-12 -30 -95 -210 -168 -368 -131 -283 -247 -514 -298
-595 -44 -69 -187 -350 -247 -485 -11 -25 -32 -71 -47 -103 -14 -31 -37 -84
-51 -117 -52 -125 -328 -611 -492 -867 -223 -350 -438 -608 -668 -804 -21 -19
-47 -41 -56 -49 -8 -8 -60 -55 -114 -105 -134 -122 -335 -324 -446 -448 -51
-56 -107 -118 -124 -137 -18 -20 -79 -94 -137 -165 -326 -403 -624 -857 -935
-1425 -160 -292 -200 -367 -346 -645 -75 -144 -471 -940 -535 -1075 -84 -179
-222 -482 -222 -488 0 -4 12 7 26 23 14 17 56 64 93 105 37 41 92 102 121 135
30 33 66 74 81 90 15 17 37 41 49 54 22 27 155 174 180 201 8 9 69 76 135 150
307 346 670 703 975 960 36 30 67 57 70 60 5 5 165 139 200 167 153 122 259
208 275 221 11 10 49 40 85 67 35 28 87 68 115 90 77 61 101 80 376 292 140
109 270 209 289 223 18 14 38 30 44 35 6 6 36 28 66 50 57 41 231 175 240 185
3 3 34 29 70 59 302 248 634 666 811 1021 167 336 313 807 383 1240 3 19 7 44
10 55 8 41 19 113 31 198 4 27 8 56 10 65 1 10 6 46 10 82 4 36 8 67 10 70 2
3 6 41 9 85 4 44 8 91 11 105 2 14 7 54 10 90 3 36 8 88 11 115 3 28 7 73 9
100 3 28 7 70 10 95 2 25 7 74 10 110 3 36 7 81 10 100 2 19 7 69 10 110 4 41
8 86 10 100 2 14 7 61 10 105 4 44 8 96 10 115 2 19 6 80 10 135 4 55 9 116
10 135 8 86 17 510 11 510 -3 0 -12 -15 -20 -32z"/>
<path d="M10637 26756 c-54 -41 -112 -87 -130 -102 -18 -16 -82 -72 -142 -124
-61 -52 -112 -97 -115 -100 -3 -3 -32 -28 -65 -55 -33 -28 -62 -52 -65 -55
-14 -16 -209 -157 -300 -218 -181 -120 -458 -273 -695 -382 -38 -18 -106 -50
-150 -70 -44 -20 -114 -52 -155 -70 -41 -18 -97 -42 -125 -55 -27 -12 -263
-113 -523 -224 -259 -111 -496 -212 -525 -225 -28 -13 -74 -34 -102 -46 -688
-305 -1159 -579 -1424 -825 -242 -226 -356 -426 -368 -645 l-5 -95 43 -16 c24
-9 210 -78 412 -154 202 -76 369 -136 371 -134 3 2 9 40 15 84 31 220 78 385
162 564 157 335 402 555 728 656 55 17 49 10 -65 -72 -329 -237 -372 -292
-399 -510 l-7 -53 64 5 c80 6 166 15 198 20 14 2 45 7 70 10 25 3 83 13 130
22 47 8 94 17 105 19 11 2 88 17 170 35 225 46 227 47 295 58 97 17 123 21
210 28 133 11 327 5 410 -12 14 -3 40 -8 59 -11 54 -9 62 -11 156 -38 125 -35
345 -123 345 -138 0 -7 -246 -2 -330 7 -252 26 -513 27 -610 2 -114 -29 -191
-66 -266 -125 -97 -77 -140 -126 -253 -287 -158 -226 -158 -226 -388 -408 -40
-31 -86 -72 -102 -89 -40 -43 -79 -116 -86 -160 -5 -32 -2 -39 32 -67 44 -36
158 -98 228 -124 28 -10 109 -38 180 -63 288 -102 461 -201 610 -351 66 -67
167 -197 196 -254 l19 -39 -27 -1 c-30 -1 -40 -2 -178 -24 -137 -22 -106 -16
-580 -124 -152 -34 -277 -55 -296 -49 -7 2 8 16 32 30 41 24 67 35 204 90 200
80 265 143 265 256 0 203 -118 284 -653 447 -153 47 -294 107 -412 174 -77 44
-166 124 -257 228 -153 176 -256 246 -473 322 -407 144 -599 132 -868 -56
-111 -77 -295 -219 -372 -287 -160 -142 -329 -443 -374 -666 -6 -30 -13 -68
-17 -85 -14 -73 -11 -282 7 -387 58 -341 265 -611 527 -689 23 -7 45 -10 48
-7 3 3 -19 64 -49 135 -68 159 -87 222 -87 290 0 162 154 314 400 397 70 23
266 66 370 81 90 13 105 15 130 20 14 2 45 7 70 10 25 3 56 8 70 10 14 3 43 7
65 10 22 2 49 6 60 9 11 2 42 7 68 10 27 4 59 9 70 12 12 2 36 6 52 9 17 3 41
8 55 10 14 3 34 7 45 9 138 28 250 58 415 111 149 49 217 69 275 82 44 9 165
10 215 1 61 -11 151 -49 179 -75 20 -19 18 -19 -107 -19 -245 -1 -354 -24
-522 -112 -113 -59 -284 -145 -340 -170 -25 -11 -91 -41 -147 -66 -245 -110
-398 -208 -463 -298 -17 -23 -30 -45 -30 -50 0 -7 277 131 305 152 13 10 238
123 295 148 67 30 249 86 315 98 186 32 345 43 345 24 0 -19 -67 -78 -119
-104 -25 -13 -95 -39 -156 -59 -480 -153 -757 -307 -917 -512 -27 -35 -58 -89
-58 -102 0 -18 219 20 413 71 350 93 452 118 592 141 11 2 47 8 80 14 33 6 74
13 90 16 17 2 68 10 115 15 47 6 99 13 115 16 61 9 403 17 467 10 l66 -7 42
-57 c96 -129 112 -210 67 -341 -51 -146 -136 -259 -386 -514 -432 -439 -516
-527 -632 -658 -66 -74 -151 -182 -182 -230 l-18 -26 123 28 c68 15 209 48
313 74 105 25 197 48 206 50 279 64 735 205 984 305 239 95 497 249 631 375
157 147 224 221 310 341 69 96 166 270 210 374 59 142 147 433 169 562 29 164
99 430 126 478 7 13 9 13 10 0 0 -8 3 -26 5 -40 2 -14 6 -122 8 -240 5 -241
-5 -376 -40 -550 -114 -569 -412 -1000 -889 -1287 -64 -38 -274 -136 -359
-168 -84 -31 -280 -87 -351 -101 -19 -4 -241 -60 -275 -69 -8 -3 -33 -9 -55
-15 -46 -12 -42 -11 -155 -44 -214 -62 -370 -114 -535 -179 -141 -54 -170 -67
-326 -144 -390 -191 -657 -412 -809 -673 -63 -108 -112 -247 -125 -355 -3 -28
-8 -60 -10 -72 -10 -46 16 -29 110 73 188 202 423 357 810 534 132 61 562 218
875 320 145 48 517 203 560 234 8 6 33 20 55 31 22 11 108 64 190 119 83 56
200 127 260 159 61 32 118 63 127 70 14 9 21 8 35 -6 17 -16 16 -19 -2 -55
-40 -75 -173 -192 -340 -297 -87 -55 -191 -116 -229 -136 -39 -19 -253 -128
-476 -241 -223 -113 -520 -264 -661 -336 -141 -71 -288 -148 -327 -171 -39
-22 -72 -41 -75 -41 -10 0 -302 -179 -412 -253 -569 -381 -981 -844 -1179
-1327 -15 -36 -33 -78 -41 -95 -20 -45 -61 -169 -89 -270 -25 -90 -78 -337
-73 -341 8 -9 105 83 156 147 180 230 504 472 876 655 368 180 745 312 1005
350 61 9 62 9 185 64 227 101 272 124 610 315 202 114 156 88 580 320 258 142
485 262 485 258 0 -12 -68 -134 -109 -193 -179 -264 -534 -622 -846 -854 -258
-193 -329 -223 -735 -310 -63 -14 -147 -37 -185 -51 -119 -45 -349 -163 -461
-237 -117 -77 -182 -137 -292 -269 -39 -47 -89 -102 -109 -121 -21 -20 -58
-55 -83 -78 -25 -23 -69 -57 -99 -77 -63 -40 -151 -121 -151 -138 0 -10 -133
-125 -146 -125 -3 0 21 51 54 113 71 135 180 306 269 422 87 112 137 174 237
295 67 80 123 147 126 150 3 3 23 29 45 59 30 42 34 52 19 48 -10 -3 -44 -11
-74 -17 -240 -54 -593 -278 -835 -532 -85 -89 -95 -100 -166 -193 -169 -220
-325 -538 -374 -762 -2 -10 -13 -58 -24 -108 -11 -49 -22 -108 -26 -130 -3
-23 -7 -50 -9 -60 -2 -11 -7 -47 -10 -80 -4 -33 -9 -68 -12 -77 -31 -105 -37
-538 -9 -648 2 -8 6 -37 10 -65 6 -54 23 -164 31 -205 2 -14 7 -41 10 -60 28
-181 65 -359 98 -480 20 -70 62 -209 82 -270 32 -93 116 -311 120 -308 1 2 -1
35 -6 73 -7 66 -4 385 4 450 2 17 7 59 10 95 8 74 42 283 57 350 6 25 13 56
15 70 56 295 227 734 351 900 57 75 72 84 68 38 -2 -18 -6 -78 -10 -133 -3
-55 -8 -107 -10 -115 -2 -8 -6 -46 -10 -83 -3 -37 -8 -77 -10 -89 -3 -11 -7
-46 -10 -77 -4 -31 -8 -67 -10 -81 -5 -40 -15 -121 -21 -175 -10 -92 -12 -459
-3 -540 8 -70 27 -198 45 -290 41 -220 300 -1016 409 -1260 8 -16 46 -102 86
-190 39 -88 76 -172 81 -187 14 -39 24 -35 41 15 8 23 51 130 95 237 98 240
238 585 389 960 63 157 122 301 130 320 8 19 19 44 23 55 4 11 13 34 20 50 6
17 59 147 117 290 58 143 133 330 168 415 35 85 120 297 190 470 70 173 133
329 140 345 8 17 25 57 39 90 14 33 25 56 26 51 0 -11 -76 -313 -97 -386 -9
-30 -18 -59 -19 -65 -10 -42 -177 -576 -225 -720 -33 -99 -76 -234 -95 -300
-29 -100 -54 -176 -91 -275 -3 -8 -7 -19 -9 -25 -17 -59 -115 -348 -168 -493
-154 -424 -431 -1264 -499 -1512 -16 -58 -52 -244 -62 -320 -3 -25 -8 -56 -10
-70 -4 -24 -15 -115 -20 -170 -2 -14 -6 -61 -10 -105 -3 -44 -8 -96 -10 -115
-3 -19 -7 -82 -11 -140 -3 -58 -8 -123 -9 -145 -16 -192 -24 -1111 -11 -1360
2 -49 4 -117 5 -149 l1 -59 22 19 c68 60 284 466 448 844 39 91 80 183 90 205
170 380 434 1111 464 1285 3 14 5 27 5 30 1 3 11 -10 22 -28 30 -46 29 -161
-2 -347 -16 -94 -17 -99 -23 -125 -3 -14 -8 -36 -10 -50 -3 -14 -7 -34 -10
-45 -2 -11 -9 -42 -16 -70 -25 -110 -79 -326 -84 -333 -3 -5 -7 -22 -10 -38
-3 -16 -13 -56 -21 -89 -9 -33 -25 -96 -36 -140 -35 -135 -91 -277 -134 -341
-23 -34 -66 -113 -97 -175 -367 -743 -484 -985 -531 -1093 -19 -43 -46 -91
-59 -105 -24 -25 -88 -118 -161 -231 -118 -184 -293 -553 -371 -783 -48 -140
-120 -407 -139 -517 -28 -157 -131 -487 -271 -875 -59 -163 -154 -431 -211
-600 -369 -1077 -537 -1463 -828 -1900 -119 -179 -182 -260 -282 -361 -101
-103 -173 -153 -265 -184 -118 -40 -232 -16 -348 71 -177 135 -215 147 -512
154 -107 2 -204 6 -215 9 -21 4 -119 14 -215 22 -105 9 -211 6 -243 -7 -35
-14 -57 -29 -196 -138 -163 -126 -361 -252 -586 -371 -188 -100 -229 -133
-309 -254 -220 -332 -263 -621 -132 -891 74 -152 229 -365 264 -365 7 0 12 18
13 43 3 95 21 289 35 362 2 11 9 46 14 78 25 134 84 274 147 343 15 18 133
107 261 198 256 183 240 171 334 250 l67 56 -14 -46 c-37 -123 -123 -220 -362
-405 -130 -101 -176 -146 -202 -199 -22 -44 -49 -146 -60 -227 -15 -123 1
-596 22 -621 39 -47 321 -212 439 -256 l68 -26 0 223 c0 122 2 242 5 267 14
151 19 189 31 237 32 122 78 174 239 270 107 65 189 126 250 189 161 167 300
337 406 497 79 119 80 121 74 77 -3 -25 -9 -61 -11 -80 -13 -88 -53 -209 -97
-290 -79 -146 -162 -241 -350 -401 -251 -213 -302 -282 -322 -434 -33 -256
-21 -472 30 -552 16 -23 77 -41 185 -51 126 -13 559 -5 740 13 19 1 73 6 120
10 47 3 103 8 125 10 22 3 65 7 95 9 30 3 75 7 100 10 25 3 68 8 95 11 28 2
68 7 90 10 22 2 61 7 88 10 26 3 68 7 95 10 26 3 65 8 87 10 22 3 63 8 90 11
28 3 61 7 75 9 14 2 52 7 85 11 33 3 70 10 82 15 13 5 23 7 23 5 0 -11 135 46
174 73 106 73 147 143 295 497 144 347 223 514 288 609 l34 50 -6 -75 c-7 -82
-40 -282 -57 -345 -5 -22 -12 -47 -13 -56 -2 -9 -24 -93 -49 -187 -51 -188
-52 -193 -33 -187 6 2 39 6 72 9 143 12 265 80 365 203 134 162 313 411 388
538 76 128 106 204 132 340 25 128 51 215 93 305 39 85 155 199 302 300 139
95 215 169 254 249 16 33 28 61 26 61 -2 0 2 17 9 38 12 33 24 93 41 202 6 34
10 246 20 925 2 187 6 354 9 370 2 17 7 66 10 110 7 75 12 115 21 175 3 14 7
48 10 75 5 37 113 473 139 560 1 6 9 39 17 75 l14 65 7 -45 c7 -47 3 -340 -6
-377 -30 -135 -43 -819 -16 -863 9 -15 53 22 90 74 16 24 62 108 103 187 84
165 152 278 263 434 243 345 296 432 564 940 231 439 345 609 543 810 118 120
159 177 215 297 31 67 78 196 86 238 2 14 11 57 19 95 9 39 18 88 21 110 4 23
8 50 10 62 3 11 7 38 10 59 4 22 13 77 21 124 8 47 17 102 21 124 3 21 7 46 9
55 1 9 6 36 10 61 4 25 9 54 11 65 3 11 7 36 10 55 3 19 7 42 9 50 2 8 7 31
10 50 3 19 15 80 25 135 11 55 22 116 25 135 3 19 8 43 11 52 3 9 7 27 9 40 9
44 45 223 50 243 2 11 13 58 24 105 72 315 155 615 228 815 94 257 241 534
441 830 79 117 385 537 456 626 12 14 28 36 36 49 8 12 23 32 34 43 18 22 18
21 13 -38 -4 -33 -8 -69 -11 -80 -22 -100 -31 -131 -58 -205 -45 -125 -146
-329 -224 -455 -13 -22 -29 -49 -35 -60 -5 -11 -20 -36 -32 -57 -43 -71 -101
-174 -122 -215 -12 -23 -26 -48 -32 -55 -53 -70 -428 -993 -571 -1408 -93
-270 -189 -621 -217 -800 -4 -25 -9 -54 -11 -65 -3 -11 -7 -42 -10 -70 -3 -27
-7 -56 -9 -63 -3 -7 -8 -47 -11 -90 -3 -42 -8 -79 -9 -82 -20 -34 -25 -750 -5
-750 21 0 55 60 91 161 65 181 133 374 178 508 75 221 185 450 211 442 8 -3
25 -5 38 -5 12 -1 22 -3 22 -6 0 -3 -5 -25 -11 -50 -12 -51 -13 -58 -29 -160
-6 -41 -13 -91 -16 -110 l-5 -35 26 28 c26 27 88 141 137 252 14 33 45 103 68
155 75 169 101 232 156 385 70 194 96 255 106 255 4 0 8 -9 8 -19 0 -31 82
-375 132 -551 46 -167 114 -352 164 -448 l11 -22 15 22 c21 34 51 114 109 292
101 314 198 512 394 811 95 144 234 329 241 322 3 -2 -18 -50 -46 -106 -97
-197 -163 -338 -257 -551 -53 -118 -144 -318 -203 -445 -112 -240 -163 -366
-204 -506 -13 -46 -28 -85 -33 -86 -12 -4 -87 160 -219 479 -127 306 -143 335
-176 317 -8 -5 -41 -71 -73 -146 -64 -153 -277 -592 -350 -720 -72 -130 -79
-119 -78 127 1 107 -2 174 -7 160 -4 -14 -22 -72 -40 -130 -76 -252 -144 -451
-179 -526 -67 -142 -145 -244 -228 -299 l-43 -28 0 -71 c-1 -144 -9 -413 -14
-442 -3 -16 -8 -64 -11 -108 -3 -43 -8 -95 -11 -115 -3 -20 -6 -49 -9 -66 -2
-16 -7 -57 -10 -90 -4 -33 -9 -67 -10 -77 -2 -9 -7 -38 -11 -65 -3 -26 -8 -55
-9 -63 -2 -8 -19 -49 -38 -90 -74 -159 -129 -283 -221 -504 -209 -495 -308
-778 -426 -1221 -28 -104 -62 -213 -75 -242 -62 -136 -164 -237 -480 -476
l-60 -45 -43 24 c-65 36 -138 52 -270 59 -64 4 -130 8 -147 9 -98 10 -162 18
-177 22 -11 3 -18 0 -18 -7 0 -7 -20 -54 -44 -104 -65 -132 -97 -160 -308
-265 -190 -94 -253 -135 -313 -201 -35 -39 -81 -124 -90 -166 -2 -10 -7 -33
-11 -52 l-7 -34 89 62 c49 34 103 74 121 88 l32 25 -8 -29 c-24 -82 -94 -173
-205 -266 -33 -27 -61 -55 -62 -61 -1 -6 -5 -31 -8 -56 -10 -62 -43 -205 -63
-265 -50 -156 -135 -288 -292 -455 l-61 -65 0 -127 0 -127 33 -31 c80 -77 415
-280 462 -280 6 0 12 12 12 28 3 135 18 386 28 457 20 150 21 155 40 224 35
119 84 174 224 250 52 28 96 51 98 51 11 0 126 84 174 127 157 139 388 397
483 538 l47 70 -5 -40 c-10 -77 -56 -236 -87 -298 -98 -192 -196 -295 -509
-533 -95 -71 -173 -155 -203 -216 -64 -128 -95 -495 -54 -629 15 -51 21 -58
56 -73 22 -8 50 -17 63 -20 26 -5 79 -14 123 -21 143 -24 714 -24 1105 0 30 2
109 6 175 10 66 3 140 8 165 10 25 2 92 7 150 10 190 11 305 21 350 30 157 32
262 102 343 231 28 45 86 158 142 279 146 311 249 508 318 607 39 57 63 75 53
41 -3 -10 -8 -36 -11 -58 -3 -22 -8 -56 -11 -75 -12 -78 -76 -315 -132 -488
l-60 -183 76 2 c67 2 95 6 162 23 51 14 143 77 208 143 98 101 356 419 424
523 96 147 122 206 163 372 14 57 30 113 35 126 8 19 6 24 -13 32 -12 5 -17 9
-11 9 6 1 19 40 29 89 10 48 25 103 33 122 21 48 89 147 131 194 20 21 49 53
65 70 15 17 47 51 70 76 145 154 177 270 152 555 -3 39 -8 79 -10 90 -2 11 -7
43 -11 70 -5 28 -9 52 -10 55 -1 3 -5 25 -9 50 -5 25 -30 146 -56 270 -27 124
-51 237 -54 250 -22 113 -46 240 -51 265 -2 17 -7 39 -9 51 -2 12 -7 45 -11
74 -4 29 -8 60 -10 69 -1 9 -6 48 -10 86 -4 39 -9 79 -11 90 -15 79 -19 324
-9 515 9 169 12 226 15 335 2 88 3 87 40 -50 25 -94 38 -177 55 -365 4 -36 8
-72 10 -80 2 -8 6 -42 10 -75 10 -91 32 -215 66 -370 27 -120 39 -166 65 -244
7 -22 43 16 69 74 23 50 57 158 70 225 20 99 114 348 238 635 63 146 149 384
187 515 245 860 298 1000 485 1289 45 69 85 135 88 146 38 132 55 195 52 195
-3 0 0 11 5 25 23 60 29 263 17 525 -17 346 -25 620 -26 898 -1 131 -5 212
-11 210 -5 -1 -31 -24 -57 -49 -26 -25 -127 -108 -223 -184 -96 -77 -177 -142
-180 -145 -3 -3 -52 -45 -110 -95 -58 -49 -107 -92 -110 -95 -23 -25 -291
-249 -316 -263 -12 -7 -6 43 25 218 25 140 29 161 43 210 6 22 12 45 14 50 9
42 45 128 95 230 43 87 60 133 61 165 1 42 27 87 106 185 4 6 46 71 94 145 89
141 148 256 218 425 22 55 46 111 53 123 l11 24 18 -22 c10 -12 18 -28 18 -34
0 -7 -23 -80 -51 -162 -45 -130 -113 -276 -212 -454 -260 -467 -312 -586 -333
-760 -3 -30 -8 -58 -10 -62 -3 -4 0 -9 5 -13 6 -3 45 31 88 75 69 72 155 137
446 340 483 335 568 401 757 588 91 90 178 173 194 184 27 20 28 20 23 2 -3
-10 -9 -59 -12 -108 -4 -50 -8 -98 -10 -107 -2 -10 -7 -49 -10 -86 -4 -37 -8
-75 -10 -83 -2 -8 -7 -49 -10 -90 -4 -41 -9 -84 -11 -95 -18 -88 -15 -365 4
-365 4 0 23 24 42 52 33 50 96 129 180 228 299 352 830 884 856 857 3 -3 -31
-114 -76 -247 -45 -133 -79 -244 -76 -247 7 -7 124 54 176 92 53 39 112 101
174 185 22 30 43 57 46 60 3 3 21 25 40 50 59 76 63 81 119 136 29 30 60 54
67 54 11 0 14 -30 12 -152 -2 -217 -27 -354 -97 -541 l-30 -79 27 7 c78 18
179 67 277 133 61 41 112 77 115 81 3 3 34 31 70 61 36 30 169 156 295 281
237 234 255 250 346 333 140 129 311 238 412 265 l39 10 -6 -92 c-12 -189 -22
-222 -106 -363 -29 -49 -55 -93 -58 -97 -7 -13 21 4 134 80 277 187 344 230
524 339 107 64 204 122 215 128 32 18 414 245 483 288 35 22 65 38 67 36 4 -5
-345 -527 -412 -616 -34 -45 -60 -82 -57 -82 26 0 147 73 223 135 47 39 187
161 230 200 78 72 336 317 497 472 66 64 223 207 294 269 25 21 47 42 50 45
15 17 173 131 226 162 127 76 316 160 496 221 74 24 277 80 328 90 14 3 61 12
105 20 165 32 270 41 495 41 107 0 220 -4 250 -9 30 -4 66 -10 80 -12 56 -8
183 -45 255 -73 173 -70 379 -240 533 -441 23 -30 46 -60 50 -65 57 -71 157
-264 230 -445 61 -152 223 -610 247 -700 1 -3 4 -12 8 -20 3 -8 31 -98 62
-200 80 -260 90 -294 120 -395 127 -434 198 -633 345 -960 40 -88 87 -199 106
-247 31 -81 126 -238 143 -238 5 0 13 -10 20 -23 32 -62 118 -182 196 -276
209 -249 470 -431 813 -565 287 -113 486 -238 832 -526 216 -180 344 -281 435
-345 39 -27 72 -52 75 -55 3 -3 49 -34 103 -68 306 -195 638 -351 1027 -484
145 -50 447 -145 485 -153 65 -15 344 -113 422 -150 219 -103 322 -218 368
-410 14 -57 14 -304 1 -375 -4 -23 -14 -107 -21 -170 -1 -14 -5 -38 -8 -55 -7
-33 -13 -68 -22 -135 -3 -25 -8 -52 -10 -60 -2 -8 -7 -35 -10 -60 -4 -25 -10
-63 -15 -85 -5 -22 -11 -53 -14 -70 -3 -16 -10 -55 -16 -85 -6 -30 -13 -66
-16 -80 -12 -61 -48 -177 -75 -241 -38 -89 -77 -154 -153 -252 -85 -110 -197
-258 -222 -292 l-21 -30 -124 0 c-114 1 -257 9 -319 20 -14 2 -47 6 -75 9 -27
3 -72 8 -100 11 -27 3 -84 10 -125 15 -106 12 -375 6 -435 -10 -27 -7 -74 -29
-103 -48 -88 -58 -133 -126 -277 -420 -30 -62 -68 -132 -84 -155 -40 -59 -151
-161 -321 -298 -303 -243 -322 -264 -346 -382 -31 -145 -14 -351 42 -517 44
-130 141 -260 214 -287 l32 -12 -7 87 c-4 48 -8 89 -10 92 -2 3 -6 55 -11 115
-26 363 25 477 291 659 155 107 233 168 321 253 110 107 184 168 184 151 0
-12 -19 -67 -48 -138 -18 -46 -100 -144 -149 -181 -229 -168 -225 -165 -279
-234 -101 -129 -146 -317 -139 -580 4 -163 20 -247 62 -332 54 -111 152 -187
259 -199 l49 -6 1 53 c2 79 15 328 19 369 12 104 18 143 36 220 39 167 103
263 320 479 164 163 299 276 299 249 0 -22 -67 -129 -122 -193 -27 -33 -89
-100 -137 -150 -94 -98 -178 -195 -203 -235 -16 -27 -36 -81 -43 -121 -3 -13
-8 -37 -11 -54 -7 -31 -7 -305 0 -365 6 -49 17 -192 21 -270 2 -36 4 -68 4
-71 1 -4 22 -10 49 -15 26 -4 49 -8 52 -9 3 0 30 -5 60 -9 30 -4 62 -9 70 -11
8 -2 30 -6 48 -9 l32 -6 1 107 c4 359 75 533 309 758 83 80 74 72 165 150 243
209 382 335 445 402 36 38 91 97 122 131 53 56 120 102 148 102 11 0 8 -125
-4 -182 -3 -13 -7 -36 -9 -53 -8 -55 -49 -189 -80 -260 -45 -101 -79 -148
-139 -187 -63 -41 -76 -46 -238 -93 -69 -20 -151 -50 -183 -67 -190 -101 -299
-369 -301 -737 l-1 -94 30 -9 c17 -4 54 -9 83 -9 49 -2 57 1 94 37 22 22 62
69 89 105 32 43 66 75 94 90 24 13 46 21 48 19 3 -3 7 -30 10 -60 3 -30 15
-81 28 -114 l23 -58 250 5 c237 5 362 12 396 22 8 2 33 7 55 10 65 10 187 53
231 83 77 51 112 106 144 229 48 178 85 269 138 343 28 38 62 69 75 70 5 0 6
-51 2 -112 -16 -286 -16 -288 3 -281 63 23 174 119 288 250 122 139 158 179
183 204 38 37 192 201 221 235 40 47 180 232 180 238 0 3 14 25 30 50 69 102
179 372 204 501 4 17 9 41 11 55 15 72 26 129 31 159 3 18 7 41 9 50 3 18 12
80 19 131 4 29 21 167 41 335 3 22 14 110 25 195 11 85 22 178 25 205 3 28 10
84 15 125 11 83 17 142 35 315 4 39 8 81 10 95 2 14 7 59 10 100 8 99 14 163
20 230 7 79 13 161 20 270 3 52 8 120 10 150 28 379 27 1154 -1 1350 -30 204
-41 230 -129 300 -61 48 -165 106 -208 116 -12 3 -67 12 -122 21 -256 39 -587
166 -805 308 -163 107 -276 214 -358 340 -84 129 -293 402 -388 505 -18 19
-42 46 -54 60 -12 14 -43 48 -68 75 -105 112 -306 343 -352 404 -92 122 -113
152 -153 220 -94 160 -145 306 -223 641 -126 544 -170 716 -229 894 -44 132
-102 294 -115 321 -5 11 -28 65 -51 120 -87 209 -257 535 -278 535 -5 0 -3
-13 5 -29 25 -50 131 -418 169 -589 33 -145 116 -526 120 -552 3 -19 11 -55
16 -80 14 -60 91 -466 104 -545 3 -16 8 -41 10 -55 10 -50 15 -78 40 -220 15
-80 33 -182 41 -228 8 -45 17 -99 20 -120 3 -20 9 -41 12 -47 17 -31 -59 51
-102 110 -112 150 -229 388 -386 781 -28 71 -55 138 -60 149 -65 146 -176 439
-291 770 -44 127 -85 239 -89 250 -9 21 -70 193 -74 210 -2 6 -8 23 -14 38 -7
16 -12 33 -12 39 0 5 -7 24 -15 41 -8 18 -48 117 -90 220 -41 104 -81 203 -89
220 -15 36 -56 136 -128 312 -87 213 -204 418 -442 769 -185 273 -210 310
-218 321 -5 5 -72 102 -151 215 -119 171 -412 587 -645 916 -30 43 -46 71 -35
66 32 -17 387 -300 452 -360 14 -13 46 -43 71 -66 25 -23 72 -66 106 -96 202
-182 249 -226 347 -325 92 -92 173 -182 320 -355 12 -14 63 -79 114 -145 51
-66 96 -124 100 -130 5 -5 53 -71 108 -145 247 -336 359 -472 580 -705 78 -82
153 -162 166 -176 385 -428 560 -597 799 -770 265 -192 589 -333 905 -393 44
-9 91 -18 105 -21 128 -26 606 -27 650 0 3 2 25 6 49 10 111 16 317 91 441
159 140 77 233 148 366 280 88 88 244 281 244 302 0 4 6 15 14 23 22 26 122
219 159 311 48 116 109 302 123 374 2 11 12 63 23 115 11 53 23 121 26 151 4
30 9 66 10 80 2 14 7 77 11 140 22 323 -7 666 -78 920 -95 344 -290 734 -591
1185 -132 198 -183 267 -852 1150 -401 530 -463 614 -495 665 -38 63 -178 338
-199 390 -7 19 -20 50 -28 68 -18 41 -90 259 -97 292 -2 14 -12 55 -20 92 -21
88 -44 210 -51 273 -3 28 -7 57 -10 65 -2 8 -7 56 -11 105 -3 50 -7 108 -9
130 -6 65 -18 403 -19 497 0 48 -4 84 -8 82 -14 -9 -65 -116 -82 -173 -24 -81
-48 -272 -49 -396 -1 -104 9 -286 18 -330 3 -11 7 -31 9 -45 63 -387 236 -834
496 -1280 115 -197 230 -363 478 -695 143 -191 177 -235 220 -290 134 -170
407 -555 465 -655 31 -53 79 -160 72 -160 -19 0 -667 631 -805 785 -35 39 -79
88 -99 110 -183 204 -399 498 -564 769 -79 128 -240 451 -292 586 -51 130
-120 346 -131 408 -3 15 -9 43 -14 62 -5 19 -11 49 -14 65 -3 17 -10 55 -16
85 -10 59 -14 87 -25 194 -10 88 -10 344 -1 421 4 33 9 76 12 95 17 137 70
353 117 470 12 30 22 57 23 60 9 52 148 313 250 468 212 322 384 520 671 774
163 143 424 364 573 486 209 169 342 307 445 462 196 294 242 574 165 1010
-14 80 -16 86 -40 185 -12 50 -23 100 -26 111 -2 12 -33 129 -70 260 -69 252
-113 417 -120 447 -2 9 -7 27 -10 40 -8 31 -63 342 -70 397 -3 25 -15 85 -25
134 -10 49 -19 94 -20 100 0 6 -14 -65 -31 -159 -26 -144 -31 -197 -32 -345 0
-96 3 -206 7 -245 4 -38 10 -90 13 -115 3 -25 21 -155 41 -290 43 -295 39
-267 52 -365 26 -200 29 -386 6 -520 -13 -80 -75 -225 -96 -225 -5 0 -7 5 -3
11 8 13 8 288 0 354 -2 22 -7 69 -11 105 -4 36 -9 70 -10 75 -1 6 -5 33 -9 60
-4 28 -14 82 -21 120 -8 39 -17 85 -20 102 -3 18 -37 169 -75 335 -62 270
-119 561 -135 688 -27 221 -27 529 0 672 35 177 95 317 185 428 130 158 142
174 156 203 9 16 12 27 7 24 -5 -3 -28 -8 -52 -12 -24 -3 -55 -11 -70 -17 -14
-5 -34 -11 -43 -13 -33 -7 -164 -77 -227 -123 -114 -81 -271 -254 -343 -378
-12 -22 -25 -41 -29 -44 -4 -3 -41 -75 -82 -160 -72 -148 -179 -440 -193 -526
-3 -21 -10 -47 -15 -56 -5 -10 -8 -18 -5 -18 3 0 0 -15 -5 -32 -13 -45 -48
-245 -60 -343 -18 -145 -23 -248 -23 -435 -1 -222 7 -327 34 -490 5 -30 12
-73 16 -95 3 -22 23 -123 45 -225 22 -102 42 -198 45 -214 3 -16 6 -32 8 -35
2 -3 7 -22 10 -41 7 -45 14 -77 20 -98 3 -9 8 -35 11 -57 4 -22 10 -62 15 -90
13 -77 9 -224 -7 -285 -19 -76 -68 -162 -182 -320 -204 -282 -461 -682 -641
-995 -10 -16 -45 -76 -78 -131 -127 -213 -271 -532 -307 -681 -3 -10 -16 -63
-30 -118 -14 -55 -28 -113 -30 -130 -24 -141 -30 -225 -30 -400 0 -207 7 -275
51 -505 17 -89 117 -427 144 -485 5 -11 27 -65 49 -120 176 -449 373 -795 711
-1252 87 -118 307 -401 320 -413 3 -3 35 -41 70 -85 35 -44 67 -82 70 -85 3
-3 39 -45 80 -95 41 -49 182 -216 314 -369 320 -373 371 -443 467 -637 108
-218 178 -455 213 -719 14 -107 15 -488 1 -560 -4 -19 -13 -66 -20 -105 -31
-170 -79 -308 -155 -454 -64 -120 -96 -164 -195 -266 -152 -157 -336 -249
-560 -280 -52 -7 -245 -8 -280 -1 -11 2 -42 7 -70 10 -149 21 -362 92 -565
189 -99 48 -323 177 -328 189 -2 4 -8 8 -14 8 -7 0 -113 69 -173 113 -136 100
-355 273 -420 332 -6 6 -49 44 -95 85 -115 101 -414 398 -470 466 -25 31 -52
63 -60 72 -8 9 -39 47 -67 84 -49 63 -102 140 -376 553 -58 88 -137 194 -175
235 -38 41 -120 138 -181 215 -148 183 -314 353 -550 561 -25 21 -56 50 -70
64 -98 96 -490 388 -711 530 -252 161 -322 207 -337 215 -10 6 -70 41 -133 79
-411 246 -742 409 -1060 522 -274 98 -364 126 -430 131 -87 7 -132 -8 -236
-79 -107 -74 -191 -120 -369 -201 -142 -65 -373 -157 -394 -157 -19 0 -20 -18
-2 -76 18 -61 18 -98 0 -120 -15 -18 -344 -237 -403 -268 -27 -14 -54 -30 -60
-34 -15 -11 -146 -70 -209 -94 -278 -105 -528 -162 -849 -193 -10 -1 -20 -4
-23 -7 -11 -11 158 -85 290 -128 72 -24 155 -54 185 -67 l55 -25 -80 -32 c-69
-29 -394 -172 -480 -212 -35 -16 -229 -80 -265 -88 -14 -3 -36 -8 -50 -11 -34
-7 -67 -13 -115 -20 -22 -4 -51 -8 -65 -10 -54 -8 -172 -16 -279 -20 -62 -1
-114 -5 -117 -8 -5 -5 36 -64 139 -198 43 -55 77 -102 75 -104 -2 -2 -62 -6
-135 -9 -72 -4 -141 -9 -152 -11 -39 -7 -286 -19 -401 -18 -102 0 -234 7 -325
18 -16 2 -59 6 -95 10 -36 3 -76 8 -90 10 -144 21 -407 38 -394 25 5 -4 145
-98 311 -208 234 -154 298 -201 280 -204 -31 -6 -1080 -1 -1147 6 -30 3 -82 8
-115 11 -165 15 -305 49 -542 128 -90 30 -163 52 -163 48 0 -3 14 -29 30 -58
56 -98 138 -175 365 -341 6 -4 36 -23 68 -42 31 -19 57 -37 57 -41 0 -15 -119
-68 -175 -78 -105 -19 -127 -20 -308 -21 -218 0 -326 20 -732 135 -317 90
-375 104 -375 91 0 -19 35 -87 97 -189 51 -84 113 -219 113 -246 0 -15 -104
-17 -265 -5 -151 11 -260 30 -590 104 -289 65 -458 89 -730 105 -94 5 -150 11
-185 19 -47 10 -79 21 -111 37 -42 21 -139 96 -139 107 0 5 10 19 21 31 l22
23 14 -24 c8 -13 31 -34 51 -48 35 -23 44 -24 157 -21 206 6 391 0 468 -14 11
-3 43 -7 71 -10 28 -3 67 -7 86 -10 40 -6 84 -12 151 -20 25 -3 55 -7 65 -9
11 -2 52 -7 90 -11 38 -3 95 -9 127 -14 73 -10 334 -7 344 4 5 4 2 10 -5 12
-7 3 -49 51 -95 106 -78 97 -161 182 -210 216 -12 8 -28 21 -35 28 -20 19
-170 116 -252 162 -121 69 -260 125 -561 226 -316 107 -477 180 -637 292 -270
188 -492 436 -626 700 -32 64 -33 75 -4 37 187 -247 317 -375 518 -509 171
-114 403 -208 590 -241 172 -29 356 -8 448 52 l26 17 -30 24 c-16 14 -72 57
-124 96 -109 82 -104 78 -190 149 -220 180 -382 417 -481 706 l-20 57 32 -35
c324 -359 458 -471 729 -605 125 -62 327 -132 434 -151 17 -2 47 -9 66 -14 35
-8 75 -15 200 -30 36 -5 133 -7 215 -5 127 3 164 7 240 30 49 14 91 28 93 29
1 2 -21 15 -50 29 -239 114 -647 520 -873 868 -60 92 -149 232 -152 239 -1 3
5 14 13 25 15 20 15 20 30 1 89 -121 415 -384 649 -523 225 -134 497 -247 697
-289 227 -48 405 -49 562 -4 80 23 140 51 129 60 -4 5 -77 38 -161 74 -191 83
-217 96 -321 164 -285 187 -657 588 -829 893 -32 57 -40 84 -23 77 5 -2 52
-43 103 -93 106 -101 185 -170 273 -237 74 -56 253 -178 261 -178 3 0 24 -13
47 -28 59 -40 266 -142 362 -179 143 -55 163 -62 242 -83 100 -27 102 -28 203
-45 132 -23 156 -25 295 -25 123 1 151 2 235 15 47 7 189 41 219 53 l24 9 -29
20 c-16 11 -110 53 -209 93 -212 87 -371 167 -509 258 -56 36 -103 69 -106 72
-3 3 -39 32 -80 65 -171 135 -358 332 -510 535 -35 47 -67 90 -72 97 -12 15
26 36 50 28 9 -3 40 -26 67 -51 28 -25 66 -57 85 -72 19 -15 37 -29 40 -32 3
-3 66 -43 140 -89 74 -46 144 -92 156 -102 11 -11 24 -19 28 -19 4 0 26 -13
49 -28 23 -16 78 -49 122 -74 44 -24 89 -50 100 -56 70 -40 269 -127 370 -160
323 -108 566 -122 930 -57 120 22 321 92 460 161 187 92 315 194 339 272 l8
24 -109 -8 c-137 -11 -594 -11 -693 -2 -184 18 -338 50 -495 103 -342 115
-681 333 -799 515 -20 30 -36 57 -36 61 0 11 255 -67 620 -190 361 -122 520
-170 645 -196 90 -18 247 -42 305 -45 121 -8 340 0 415 14 11 2 40 7 65 11
160 24 403 103 645 210 286 126 440 218 494 294 l22 31 -253 -7 c-419 -10
-843 -5 -922 12 -12 2 -48 7 -81 10 -50 4 -130 16 -270 40 -11 2 -27 6 -35 9
-8 3 -28 7 -45 9 -52 8 -245 66 -360 109 -188 70 -314 139 -385 213 -33 35
-34 36 -10 31 105 -24 164 -36 220 -46 36 -5 76 -12 90 -14 37 -7 176 -24 245
-31 33 -3 74 -8 90 -10 149 -20 747 -27 945 -12 58 5 122 10 143 12 59 4 174
19 250 31 77 12 98 16 167 29 109 22 109 22 180 40 582 148 1100 441 1292 733
22 34 39 65 36 67 -5 5 -174 -20 -273 -40 -38 -8 -86 -17 -105 -20 -19 -3 -42
-8 -50 -10 -8 -2 -26 -6 -40 -9 -14 -2 -83 -15 -155 -29 -71 -14 -143 -28
-160 -31 -363 -57 -470 -60 -965 -31 -36 2 -117 6 -180 9 -114 5 -276 14 -400
21 -147 8 -265 30 -340 64 l-45 20 45 1 c25 1 90 3 145 5 140 4 379 15 445 20
30 2 91 7 135 10 44 3 96 7 115 10 19 2 64 6 100 10 59 6 129 15 235 30 67 10
296 55 360 72 33 8 65 16 70 17 85 19 279 85 409 138 350 144 697 371 947 618
63 63 131 135 150 159 19 24 46 58 60 75 91 106 284 435 266 452 -9 9 -130
-50 -285 -139 -74 -42 -139 -77 -146 -77 -7 0 -16 -4 -21 -9 -22 -21 -240
-106 -400 -154 -118 -36 -395 -105 -495 -123 -14 -3 -32 -7 -40 -9 -8 -2 -28
-6 -45 -9 -16 -3 -73 -12 -125 -21 -52 -9 -108 -19 -125 -21 -16 -2 -61 -8
-100 -14 -75 -11 -135 -18 -202 -25 -41 -5 -67 -7 -188 -20 -123 -12 -367 -27
-474 -29 -53 -1 -65 2 -67 16 -1 12 16 23 69 42 77 27 272 83 322 92 17 3 66
14 110 24 44 10 139 33 210 50 475 113 882 287 1264 542 157 105 264 191 387
313 169 167 269 302 359 483 87 175 135 346 150 532 4 41 8 92 10 113 2 20 1
37 -3 37 -4 0 -20 -17 -37 -38 -300 -380 -490 -565 -739 -717 -86 -53 -313
-169 -401 -205 -11 -4 -36 -15 -55 -23 -235 -100 -679 -225 -955 -267 -38 -6
-81 -13 -95 -15 -14 -3 -50 -7 -80 -10 -30 -4 -66 -8 -80 -11 -14 -3 -113 -7
-220 -9 -201 -5 -207 -2 -65 29 256 55 706 200 955 306 832 356 1365 871 1598
1545 30 87 58 184 68 235 3 14 7 33 10 42 7 22 13 54 19 103 3 22 8 51 10 65
6 33 13 92 21 160 9 91 12 360 4 360 -5 0 -19 -14 -31 -32 -12 -17 -50 -63
-83 -103 -34 -40 -79 -94 -101 -121 -229 -278 -329 -381 -649 -669 -10 -9
-101 -84 -136 -112 -29 -24 -106 -78 -165 -117 -249 -166 -496 -284 -703 -335
-111 -27 -155 -34 -151 -23 2 6 119 92 259 192 242 173 332 241 355 264 6 6
39 35 75 65 67 57 271 258 350 347 171 191 394 505 513 724 50 93 154 303 182
371 15 35 38 89 52 119 14 30 32 73 40 95 8 22 21 54 28 70 110 260 295 847
330 1045 3 19 10 53 15 75 5 22 12 60 15 85 4 24 8 47 10 50 1 3 6 37 10 75 3
39 9 85 11 103 3 17 2 32 -3 32 -17 -1 -153 -180 -276 -363 -70 -104 -146
-213 -168 -241 -132 -166 -435 -473 -659 -666 -35 -30 -68 -59 -74 -65 -43
-40 -284 -238 -446 -367 -331 -263 -521 -402 -885 -643 -393 -261 -460 -316
-589 -489 -111 -149 -395 -556 -458 -659 -47 -75 -158 -287 -158 -301 0 -3 -9
-25 -19 -49 -11 -23 -31 -78 -45 -122 -42 -132 -214 -737 -220 -777 -11 -72
-107 -361 -191 -573 -97 -248 -357 -730 -408 -756 -34 -18 -127 -120 -127
-141 0 -19 -190 -159 -270 -199 -36 -18 -341 -254 -360 -279 -20 -26 -330
-243 -445 -312 -142 -85 -203 -117 -650 -342 -307 -154 -397 -196 -520 -239
-55 -20 -183 -65 -285 -102 -226 -81 -461 -159 -640 -215 -348 -107 -802 -301
-1094 -468 -45 -25 -90 -50 -101 -56 -29 -16 -228 -148 -241 -160 -7 -6 -24
-20 -40 -31 -76 -54 -221 -182 -334 -295 -255 -255 -468 -548 -685 -940 l-46
-85 6 50 c33 265 181 590 447 990 55 83 104 152 108 155 4 3 13 16 20 29 13
25 -40 -13 -180 -128 -188 -155 -404 -382 -557 -586 -195 -261 -397 -615 -527
-925 -27 -63 -54 -128 -61 -145 -16 -36 -74 -185 -122 -310 -53 -142 -116
-269 -123 -250 -7 20 -5 266 4 365 21 243 56 431 123 660 35 119 36 123 81
240 139 367 347 716 566 949 l51 54 -70 -37 c-38 -20 -79 -42 -89 -49 -11 -6
-51 -32 -90 -57 -209 -133 -456 -351 -636 -560 -36 -41 -67 -77 -70 -80 -3 -3
-21 -25 -40 -50 -19 -25 -37 -47 -40 -50 -17 -15 -148 -201 -214 -302 -141
-217 -206 -337 -414 -768 -155 -321 -331 -674 -331 -665 0 6 4 28 9 50 5 22
11 51 14 65 2 14 14 68 26 120 12 52 23 104 25 115 12 54 57 246 70 295 8 30
16 66 19 80 6 33 61 236 86 320 19 63 54 220 65 290 13 80 15 97 20 144 3 27
7 52 10 56 2 3 7 20 9 36 7 38 101 390 126 474 11 36 33 110 49 165 123 422
210 616 405 905 61 90 203 277 273 360 84 100 169 200 191 225 43 48 256 289
267 301 13 14 135 151 158 178 10 12 42 48 71 81 29 33 80 92 112 131 32 39
77 93 99 119 181 217 409 540 530 755 128 224 209 409 296 673 33 100 69 195
79 212 l20 30 1 -30 c2 -65 -2 -293 -5 -345 -9 -116 -18 -216 -22 -235 -2 -11
-6 -42 -9 -70 -3 -27 -8 -57 -10 -65 -2 -8 -7 -31 -10 -50 -93 -550 -362
-1088 -794 -1585 -129 -149 -178 -200 -617 -639 -482 -482 -625 -653 -772
-921 -75 -138 -176 -414 -158 -433 6 -5 110 98 452 449 147 151 268 265 347
326 16 12 65 56 110 97 45 41 109 95 142 120 98 76 124 97 235 185 58 47 107
88 110 92 4 5 35 32 194 169 16 14 70 61 121 105 150 131 319 265 505 400 202
147 254 189 369 300 216 208 371 439 519 775 132 300 229 651 257 930 4 36 8
79 11 95 2 17 6 64 9 105 3 41 8 89 10 105 2 17 7 82 11 145 3 63 8 122 9 131
2 9 7 63 11 120 3 57 8 111 10 119 1 8 3 35 4 60 l2 45 18 -55 c20 -63 58
-235 71 -324 5 -32 11 -70 14 -85 2 -14 7 -51 11 -81 3 -30 8 -63 10 -74 17
-89 23 -483 10 -646 -15 -191 -53 -437 -87 -565 -6 -22 -12 -47 -14 -55 -11
-58 -105 -352 -124 -387 -5 -10 -19 -43 -31 -73 -33 -82 -123 -259 -184 -363
-48 -83 -208 -314 -225 -327 -4 -3 -17 -18 -30 -35 -56 -73 -143 -162 -226
-233 -93 -78 -180 -161 -156 -147 86 49 627 419 651 445 3 3 28 23 55 45 79
63 223 210 317 326 235 286 349 511 407 799 19 98 24 132 36 250 6 61 5 482
-1 605 -9 171 -11 436 -3 441 4 2 16 -8 27 -23 58 -82 126 -261 158 -413 21
-101 21 -99 29 -150 10 -69 13 -90 20 -150 3 -30 8 -71 10 -90 2 -19 7 -66 10
-105 3 -38 7 -92 10 -120 3 -27 7 -84 10 -125 8 -112 16 -184 19 -188 6 -6 98
220 142 350 37 108 86 281 100 353 2 11 6 31 9 45 6 26 7 34 24 160 20 151 22
176 22 324 0 179 -5 229 -46 467 -21 118 -100 336 -198 539 -87 183 -113 240
-142 316 l-23 61 93 -2 c260 -8 423 81 671 364 l38 43 -89 -7 c-50 -4 -101 -9
-115 -11 -39 -5 -222 -17 -255 -17 -255 1 -457 144 -801 566 -37 46 -131 177
-234 327 -62 91 -131 187 -153 214 -32 38 -37 50 -26 57 40 25 66 6 223 -171
84 -95 199 -211 256 -259 30 -25 57 -48 60 -51 14 -15 146 -93 192 -113 137
-60 248 -77 432 -68 26 1 21 6 -55 57 -237 158 -423 364 -570 629 -114 205
-224 478 -350 870 -37 113 -43 125 -67 120 -9 -1 -73 -6 -142 -9 -144 -7 -148
-21 30 110 220 161 324 308 354 499 19 118 19 117 -4 105 -11 -6 -48 -30 -83
-54 -279 -194 -480 -169 -842 105 -49 37 -112 91 -140 120 l-50 51 44 -6 c58
-9 161 -42 241 -79 199 -90 322 -131 440 -143 25 -3 51 -7 58 -9 6 -3 12 -1
12 3 0 10 -51 86 -80 119 -92 104 -119 155 -230 423 -218 530 -352 706 -713
935 l-75 47 3 72 c2 39 6 143 10 231 3 88 8 198 10 245 3 47 7 141 10 210 3
69 8 173 11 233 3 62 1 107 -4 107 -12 0 -93 -220 -127 -345 -148 -549 -386
-809 -824 -901 -110 -23 -113 -23 -151 -30 -19 -4 -44 -8 -55 -11 -11 -2 -36
-6 -55 -9 -19 -2 -57 -9 -85 -14 -27 -5 -88 -14 -135 -20 -47 -6 -103 -14
-125 -17 l-40 -5 25 27 c14 15 59 49 100 76 41 27 80 54 87 59 7 6 14 10 17
10 24 0 540 320 591 367 11 10 33 28 48 40 16 12 83 74 149 138 66 63 123 115
128 115 4 0 -1 -29 -11 -65 -10 -36 -18 -68 -18 -70 0 -3 -5 -30 -11 -60 -6
-31 -10 -61 -8 -67 7 -19 105 89 131 144 30 66 41 111 72 310 37 238 73 331
225 573 35 55 82 138 105 185 46 90 99 248 93 274 -2 11 -29 -4 -101 -58z
m-891 -2299 c67 -24 105 -46 174 -100 202 -158 354 -330 416 -472 l26 -60 -29
26 c-119 107 -159 140 -249 200 -104 70 -300 170 -415 213 -346 128 -456 172
-447 181 1 2 31 6 65 10 34 3 72 8 85 10 13 3 66 8 118 11 52 4 96 7 97 9 7 5
124 -15 159 -28z m526 -1258 c83 -61 357 -331 538 -528 52 -58 133 -143 180
-190 82 -83 149 -156 218 -234 33 -39 42 -63 18 -54 -7 3 -19 0 -25 -6 -8 -8
-14 -9 -19 -1 -4 5 -83 70 -177 144 -93 74 -222 175 -285 225 -63 50 -120 94
-126 98 -7 4 -10 -144 -9 -513 0 -286 -2 -520 -6 -520 -7 0 -59 76 -59 86 0 3
-6 20 -14 37 -8 18 -28 70 -46 117 -52 133 -161 347 -236 461 -38 57 -71 106
-74 109 -3 3 -35 41 -72 85 -85 102 -138 153 -328 315 -154 132 -242 211 -269
244 -12 14 -2 12 55 -9 274 -102 620 -356 744 -547 20 -31 68 -122 105 -202
38 -80 72 -143 75 -141 8 5 4 136 -4 180 -4 17 -9 46 -12 65 -5 31 -24 102
-56 210 -9 31 -50 142 -125 340 -43 113 -93 261 -93 276 0 23 15 17 102 -47z
m-4210 -110 c58 -15 100 -53 169 -151 l40 -58 -26 -1 c-14 -1 -28 -2 -32 -3
-9 -2 -110 -18 -133 -21 -161 -20 -471 -108 -772 -219 -38 -14 -68 -23 -68
-20 0 15 93 146 138 195 69 75 186 160 282 205 73 34 190 73 237 80 26 3 49 7
51 9 5 4 76 -5 114 -16z m1984 -2392 c-17 -195 -120 -414 -240 -509 -81 -65
-233 -162 -331 -212 -82 -41 -195 -86 -217 -86 -17 0 53 117 120 201 64 81
648 676 666 678 5 1 6 -32 2 -72z m14979 -11522 c15 -44 72 -210 127 -370 55
-159 113 -330 129 -380 27 -80 100 -350 113 -416 14 -69 39 -197 43 -219 48
-266 83 -407 130 -519 92 -224 235 -440 505 -761 30 -35 281 -324 288 -330 22
-21 81 -102 78 -106 -6 -6 -65 18 -156 64 -119 60 -227 149 -438 362 -189 192
-304 293 -404 355 -25 16 -135 74 -245 130 -398 202 -610 329 -825 494 -122
93 -349 318 -359 355 -4 17 -7 33 -5 35 1 1 54 -35 116 -82 427 -319 719 -476
898 -479 81 -1 123 7 181 39 45 24 47 28 62 91 11 50 14 110 11 232 -2 91 -6
179 -8 195 -3 17 -8 62 -11 100 -3 39 -8 77 -10 85 -2 8 -7 33 -10 55 -3 23
-7 52 -10 65 -3 13 -7 40 -10 60 -3 20 -7 45 -9 55 -7 33 -47 219 -51 235 -2
8 -10 44 -18 80 -9 36 -40 166 -71 290 -58 236 -62 257 -73 330 -8 60 -1 50
32 -45z m4517 -3319 c104 -39 142 -63 210 -134 94 -98 138 -184 154 -299 3
-26 8 -57 10 -68 11 -49 3 -436 -11 -570 -12 -117 -51 -292 -63 -281 -3 3 -6
22 -8 43 -3 38 -7 82 -19 198 -25 231 -79 462 -170 725 -69 200 -72 207 -125
307 -27 52 -50 97 -50 99 0 7 7 5 72 -20z m-727 -1140 c97 -137 222 -421 270
-616 16 -67 35 -150 39 -175 2 -16 8 -50 12 -75 10 -66 12 -206 2 -269 -13
-87 -55 -195 -106 -274 -48 -75 -258 -294 -392 -408 -79 -68 -185 -149 -195
-149 -3 0 -19 -10 -35 -22 -16 -12 -33 -19 -36 -15 -3 3 15 75 41 159 26 84
53 173 60 198 7 25 23 77 35 115 37 120 81 301 105 430 23 124 24 133 39 260
26 208 44 436 61 735 5 99 14 169 22 183 7 12 31 -11 78 -77z m-22651 -2828
c-2 -13 -7 -36 -9 -53 -24 -134 -94 -303 -169 -409 -117 -163 -285 -259 -482
-273 -46 -3 -84 -4 -84 -2 0 2 6 21 13 41 19 53 62 97 179 179 117 81 300 261
367 359 35 51 169 180 186 180 2 0 2 -10 -1 -22z m4212 -55 c-2 -10 -12 -47
-21 -83 -9 -35 -32 -103 -52 -150 -126 -298 -358 -469 -637 -470 l-68 0 7 28
c12 50 60 96 184 178 173 115 276 206 393 347 31 38 76 83 99 100 24 17 53 40
63 49 25 23 39 23 32 1z"/>
<path d="M17793 24808 c-53 -73 -83 -116 -83 -122 0 -3 -14 -29 -31 -58 -18
-29 -52 -91 -77 -138 -129 -241 -412 -709 -601 -995 -100 -152 -345 -492 -370
-515 -3 -3 -49 -54 -101 -115 -206 -239 -349 -393 -510 -550 -131 -128 -205
-192 -374 -324 -148 -115 -181 -146 -265 -242 -96 -111 -100 -116 -161 -214
-100 -160 -196 -366 -285 -610 -169 -468 -286 -716 -443 -945 -253 -368 -590
-653 -1077 -910 -223 -118 -248 -143 -271 -280 -3 -14 -7 -33 -10 -42 -3 -9
-7 -26 -9 -37 -54 -242 -203 -755 -302 -1036 -118 -337 -186 -486 -315 -695
-78 -126 -141 -241 -135 -247 2 -2 24 1 48 7 24 6 57 13 74 16 33 7 259 74
345 104 143 49 348 126 415 155 17 8 68 29 115 48 47 19 103 43 125 52 238
102 732 346 905 447 19 12 55 32 80 46 88 49 317 194 402 255 288 206 517 437
744 752 236 327 317 505 471 1040 52 181 101 355 109 385 53 197 158 516 211
638 77 175 242 443 459 746 52 72 76 107 139 196 21 30 66 93 100 140 177 246
304 523 434 952 35 115 110 402 125 478 3 14 7 36 10 50 3 14 10 48 16 75 5
28 12 61 15 75 3 14 8 36 10 50 28 162 37 220 50 305 8 55 17 120 20 145 3 25
7 56 10 70 2 14 7 57 10 95 3 39 8 88 10 110 17 149 28 695 14 695 -4 0 -24
-24 -46 -52z"/>
<path d="M7418 23695 c-1 -1 -39 -5 -83 -8 -103 -7 -162 -22 -253 -63 -109
-49 -216 -165 -239 -258 -15 -61 -26 -135 -21 -148 4 -8 53 -38 110 -67 200
-101 296 -78 497 119 102 101 149 170 175 260 19 68 27 138 15 146 -5 2 -46 7
-91 10 -46 3 -88 7 -95 9 -6 2 -13 2 -15 0z"/>
<path d="M25030 23509 c-58 -66 -116 -132 -130 -148 -14 -15 -52 -58 -85 -96
-33 -37 -65 -73 -70 -79 -6 -6 -61 -69 -124 -141 -121 -138 -361 -380 -476
-480 -38 -33 -73 -64 -79 -70 -6 -5 -61 -53 -121 -105 -134 -116 -174 -151
-194 -170 -9 -8 -37 -31 -61 -50 -25 -19 -47 -37 -50 -41 -21 -26 -367 -273
-600 -427 -80 -54 -147 -99 -150 -102 -3 -3 -52 -36 -110 -75 -215 -143 -607
-424 -701 -503 -13 -11 -80 -66 -149 -123 -69 -56 -204 -182 -300 -278 l-175
-176 -325 -455 c-178 -250 -419 -588 -535 -750 -116 -162 -225 -315 -243 -340
-17 -25 -35 -49 -39 -55 -5 -5 -16 -21 -25 -35 -20 -29 -47 -67 -178 -249
-153 -213 -320 -484 -353 -574 -9 -24 10 -10 218 153 146 115 328 254 381 290
12 8 100 70 195 136 207 145 451 305 764 502 127 79 246 155 265 167 19 13
163 103 320 200 1034 644 1477 964 1854 1341 90 90 181 188 226 244 25 30 53
63 63 75 81 88 283 382 388 562 43 75 203 394 252 503 112 251 309 781 333
895 1 6 14 51 28 101 15 50 28 100 30 110 2 10 11 46 19 79 9 33 23 101 32
150 8 50 18 100 21 113 2 12 1 22 -3 21 -5 0 -55 -54 -113 -120z"/>
<path d="M23942 20577 c-39 -34 -109 -102 -154 -152 -139 -153 -327 -335 -453
-440 -33 -28 -62 -52 -65 -55 -35 -35 -297 -213 -376 -255 -26 -14 -52 -29
-59 -35 -6 -5 -209 -109 -451 -229 -241 -121 -491 -247 -554 -281 -92 -50
-978 -592 -1015 -622 -5 -5 -66 -52 -135 -105 -112 -87 -261 -207 -330 -266
-14 -12 -52 -44 -85 -72 -33 -27 -75 -63 -94 -80 -19 -16 -39 -34 -45 -40 -6
-5 -47 -41 -91 -80 -193 -170 -388 -367 -444 -448 -18 -27 -31 -50 -29 -53 8
-8 440 129 523 166 27 12 259 91 375 128 187 59 427 123 595 158 16 3 173 33
305 58 106 20 359 68 378 72 12 2 32 6 45 8 70 13 261 59 352 86 330 96 532
208 728 404 152 151 306 360 442 601 70 122 386 755 378 755 -2 0 5 13 16 29
12 16 21 33 21 38 0 6 15 41 34 79 27 57 71 157 136 309 4 11 15 36 23 55 31
71 113 331 105 330 -2 -1 -36 -29 -76 -63z"/>
<path d="M22007 17664 c-1 -1 -49 -5 -107 -9 -140 -9 -374 -34 -470 -50 -14
-2 -97 -16 -185 -30 -88 -15 -225 -40 -305 -57 -80 -16 -154 -31 -165 -33 -11
-2 -58 -13 -105 -25 -47 -11 -96 -23 -109 -26 -56 -12 -297 -79 -426 -119
-343 -106 -657 -236 -894 -370 -136 -76 -309 -207 -375 -283 l-29 -33 94 5
c118 7 297 15 459 21 290 10 649 28 797 40 183 15 260 22 352 34 42 6 99 13
126 17 28 3 95 15 150 26 55 10 111 21 125 24 14 3 66 16 115 31 435 126 860
406 1094 723 98 132 101 122 -29 118 -61 -2 -112 -4 -113 -4z"/>
<path d="M21265 16644 c-134 -39 -411 -104 -505 -119 -106 -16 -199 -20 -420
-16 -492 6 -781 2 -881 -14 -13 -2 -53 -6 -89 -10 -36 -3 -74 -8 -85 -10 -11
-3 -36 -7 -55 -10 -42 -6 -95 -16 -155 -30 -40 -9 -255 -74 -280 -84 -123 -51
-207 -91 -295 -142 -120 -68 -314 -202 -390 -269 -29 -25 -57 -49 -63 -55 -18
-15 -43 -50 -32 -43 6 4 32 9 58 12 26 3 57 8 69 10 25 6 98 15 168 22 25 2
54 6 65 8 26 6 291 20 375 20 79 0 241 -11 261 -18 8 -3 32 -7 54 -10 52 -6
113 -20 260 -57 66 -17 128 -33 138 -35 9 -2 25 -6 35 -8 56 -14 112 -25 145
-30 62 -10 108 -17 128 -21 99 -19 503 -28 604 -13 309 46 546 202 811 538
118 150 222 320 249 408 8 29 9 29 -170 -24z"/>
<path d="M18597 15664 c-1 -1 -37 -5 -79 -9 -43 -3 -90 -9 -105 -12 -15 -2
-37 -6 -48 -8 -59 -8 -201 -45 -286 -74 -138 -47 -366 -150 -489 -223 -51 -30
-182 -137 -170 -139 3 0 64 -2 135 -4 247 -6 400 -19 545 -46 30 -6 66 -12 80
-15 14 -2 48 -10 75 -16 28 -7 52 -13 55 -13 33 -8 316 -90 470 -137 36 -11
72 -21 80 -23 8 -2 56 -13 105 -25 224 -55 429 -61 595 -20 250 62 559 243
794 466 6 5 37 31 69 57 l58 47 -253 -1 c-226 -2 -375 4 -418 16 -8 3 -31 7
-50 9 -19 3 -75 14 -125 25 -49 11 -101 22 -115 25 -14 2 -90 18 -170 35 -295
61 -451 81 -668 85 -46 0 -84 0 -85 0z"/>
<path d="M17398 14945 c-2 -2 -30 -6 -63 -9 -33 -4 -73 -9 -90 -11 -16 -3 -46
-7 -65 -10 -48 -7 -81 -13 -159 -31 -36 -9 -75 -18 -86 -20 -52 -9 -260 -70
-444 -130 -10 -3 -11 -7 -2 -18 13 -15 230 -127 321 -165 30 -13 73 -32 95
-42 22 -10 87 -36 145 -59 58 -22 114 -45 125 -50 47 -21 310 -111 415 -143
168 -50 237 -61 410 -61 210 -1 361 15 585 59 44 9 91 18 105 21 227 43 681
218 639 245 -15 9 -252 86 -429 139 -91 27 -162 49 -295 89 -16 6 -149 43
-295 84 -359 102 -441 115 -717 115 -106 0 -193 -2 -195 -3z"/>
<path d="M16148 14445 c-2 -1 -32 -5 -68 -9 -57 -5 -124 -15 -210 -32 -14 -3
-65 -15 -115 -27 l-90 -23 75 -49 c41 -27 104 -64 139 -82 63 -33 212 -141
283 -205 385 -349 590 -453 958 -485 145 -13 425 -7 520 11 14 3 43 7 65 11
82 12 203 49 289 88 l89 41 -39 12 c-272 83 -424 145 -599 242 -67 37 -200
118 -336 203 -305 192 -473 265 -674 294 -49 7 -281 15 -287 10z"/>
<path d="M15080 14045 c-170 -29 -269 -69 -364 -150 l-69 -59 54 -14 c75 -19
198 -78 300 -145 48 -31 93 -62 100 -69 21 -19 155 -119 229 -169 75 -51 182
-108 259 -139 45 -17 210 -63 271 -75 50 -10 198 -37 215 -40 53 -9 222 -31
305 -40 30 -3 73 -8 95 -10 67 -8 398 -12 438 -6 l38 6 -53 40 c-29 21 -57 43
-63 48 -5 4 -77 56 -160 114 -82 58 -195 142 -250 187 -367 299 -686 466 -995
521 -71 12 -277 12 -350 0z"/>
<path d="M14137 13574 c-1 -1 -40 -4 -87 -8 -142 -10 -257 -37 -375 -89 -87
-39 -179 -93 -168 -100 4 -2 91 -30 193 -61 102 -30 212 -65 245 -77 52 -18
251 -117 280 -139 32 -24 343 -176 419 -204 87 -33 214 -70 266 -80 14 -2 53
-9 87 -15 35 -6 75 -13 90 -16 132 -23 627 -24 650 -1 10 9 -41 77 -127 169
-59 64 -219 197 -285 237 -22 13 -41 28 -43 32 -2 4 -9 8 -16 8 -8 0 -24 8
-37 18 -36 29 -202 113 -312 161 -186 79 -432 143 -602 156 -98 8 -175 12
-178 9z"/>
<path d="M12817 13264 c-1 -1 -35 -4 -75 -7 -66 -5 -212 -47 -236 -68 -4 -4
16 -19 46 -33 51 -24 177 -119 279 -210 25 -23 54 -48 65 -56 11 -8 42 -33 69
-56 323 -262 681 -411 1065 -441 114 -9 284 -8 400 1 52 5 101 9 108 9 21 1
14 16 -47 95 -297 390 -599 602 -979 687 -170 38 -310 60 -452 70 -90 7 -239
13 -243 9z"/>
<path d="M18889 11186 c-2 -2 -35 -6 -74 -9 -275 -24 -581 -133 -812 -289 -78
-52 -99 -69 -186 -148 -218 -199 -403 -542 -491 -910 -16 -67 -19 -86 -41
-230 -12 -82 -14 -469 -2 -516 3 -11 8 -46 11 -77 14 -125 82 -420 123 -527 3
-8 7 -19 8 -25 6 -26 81 -220 117 -305 77 -179 243 -509 319 -633 16 -26 29
-50 29 -53 0 -3 35 -60 77 -127 77 -122 155 -231 289 -402 39 -49 107 -137
152 -195 134 -173 257 -304 433 -460 46 -41 86 -77 89 -80 3 -3 41 -35 85 -70
44 -36 82 -67 85 -70 3 -3 61 -48 130 -99 111 -83 290 -204 725 -489 72 -47
153 -109 180 -137 136 -139 200 -389 150 -589 -41 -162 -130 -251 -740 -751
-93 -77 -182 -152 -198 -168 l-28 -28 20 -28 c11 -15 53 -57 93 -92 114 -101
167 -160 197 -219 30 -59 46 -110 34 -110 -8 0 -113 71 -262 178 -383 274
-697 458 -934 546 -159 60 -302 78 -387 49 -42 -14 -217 -122 -250 -154 -31
-30 -228 -172 -290 -209 -36 -22 -122 -61 -191 -89 -145 -57 -206 -89 -269
-140 -107 -87 -189 -204 -284 -406 -113 -240 -123 -463 -29 -650 43 -84 155
-225 179 -225 5 0 9 28 9 63 0 152 30 330 78 459 87 230 228 393 457 528 l50
29 0 -35 c0 -60 -44 -128 -154 -237 -143 -141 -218 -277 -251 -452 -17 -94
-25 -374 -12 -460 18 -121 81 -205 198 -261 114 -56 104 -65 106 104 4 227 12
282 53 367 23 49 135 200 186 252 6 6 72 92 147 190 139 183 217 277 223 270
2 -2 -7 -44 -21 -93 -30 -104 -68 -176 -175 -334 -202 -300 -244 -416 -244
-685 -1 -93 2 -182 6 -196 7 -24 17 -28 130 -53 163 -35 178 -38 179 -29 3 27
13 83 35 192 60 295 118 402 240 446 105 37 171 75 228 132 32 32 66 69 75 83
27 44 142 200 147 200 5 0 -4 -174 -11 -210 -3 -14 -8 -41 -11 -60 -12 -76
-58 -193 -96 -251 -45 -67 -104 -118 -209 -180 -142 -85 -179 -145 -187 -301
-4 -79 -2 -98 9 -99 8 0 23 -3 34 -5 34 -8 335 -8 420 -1 68 7 127 16 265 41
72 13 214 63 285 99 65 33 100 61 190 151 126 128 192 217 307 413 44 76 95
161 114 188 33 50 104 128 111 122 7 -7 -29 -170 -54 -245 -14 -42 -56 -138
-93 -213 -69 -140 -103 -225 -115 -292 l-7 -38 58 6 c187 21 426 144 699 363
103 82 489 456 565 547 25 30 206 239 225 261 6 6 24 28 40 50 17 21 45 56 63
78 18 23 39 48 46 56 333 411 728 997 1025 1520 166 291 181 387 88 545 -16
28 -84 128 -151 223 -66 95 -126 180 -131 190 -43 70 -160 243 -217 319 -91
122 -185 207 -303 273 -119 67 -174 120 -218 214 -32 66 -91 234 -101 287 -2
13 -9 42 -14 64 -6 22 -13 54 -16 70 -3 17 -10 53 -15 82 -6 28 -13 78 -16
110 -3 32 -8 69 -10 83 -25 148 -25 628 1 821 5 42 -1 64 -61 210 -125 309
-184 480 -280 825 -14 50 -28 101 -30 114 -2 13 -9 37 -15 54 -5 17 -21 76
-35 131 -14 55 -27 107 -29 115 -134 521 -275 883 -435 1120 -91 134 -210 264
-317 347 -138 106 -425 215 -633 239 -31 3 -78 10 -105 14 -49 8 -370 13 -377
6z m-884 -788 c-33 -374 -39 -1065 -10 -1216 3 -19 12 -92 21 -162 6 -52 16
-116 29 -180 3 -14 10 -50 16 -80 6 -30 12 -59 13 -65 2 -5 6 -28 11 -50 4
-22 21 -92 37 -155 16 -63 31 -123 33 -133 21 -91 164 -539 203 -632 11 -27
33 -81 47 -120 15 -38 73 -176 128 -305 103 -241 160 -390 154 -396 -10 -10
-198 163 -308 282 -104 113 -339 430 -372 504 -4 8 -18 33 -32 55 -78 125
-215 431 -250 559 -8 28 -19 67 -25 86 -15 51 -58 266 -65 330 -3 30 -10 89
-14 130 -9 78 -6 425 3 495 3 22 8 60 11 85 16 134 67 357 112 490 34 102 129
341 164 415 23 50 81 125 95 125 2 0 2 -28 -1 -62z m3659 -5422 c-28 -134 -75
-229 -239 -486 -61 -96 -129 -204 -151 -240 -21 -36 -42 -66 -46 -68 -5 -2 -8
-7 -8 -12 0 -4 -45 -82 -100 -172 -149 -245 -196 -346 -364 -783 -87 -227
-140 -355 -184 -440 -38 -75 -83 -144 -93 -145 -3 0 0 22 7 49 7 28 15 65 18
83 3 18 24 123 46 233 22 110 42 209 44 220 2 11 16 76 31 145 14 69 28 134
31 145 46 226 152 573 209 686 68 137 93 163 275 301 144 108 242 203 390 378
30 36 57 67 60 70 3 3 22 26 43 53 21 26 40 47 41 47 2 0 -2 -29 -10 -64z"/>
</g>
</svg>
